<svg id="visual" viewBox="0 0 900 600" width="900" height="600" xmlns="http://www.w3.org/2000/svg" xmlns:xlink="http://www.w3.org/1999/xlink" version="1.1"><rect x="0" y="0" width="900" height="600" fill="#001220"></rect><path d="M0 376L21.5 385C43 394 86 412 128.8 417.2C171.7 422.3 214.3 414.7 257.2 416C300 417.3 343 427.7 385.8 418.8C428.7 410 471.3 382 514.2 375.5C557 369 600 384 642.8 398.7C685.7 413.3 728.3 427.7 771.2 434.7C814 441.7 857 441.3 878.5 441.2L900 441L900 601L878.5 601C857 601 814 601 771.2 601C728.3 601 685.7 601 642.8 601C600 601 557 601 514.2 601C471.3 601 428.7 601 385.8 601C343 601 300 601 257.2 601C214.3 601 171.7 601 128.8 601C86 601 43 601 21.5 601L0 601Z" fill="#3b24a5"></path><path d="M0 433L21.5 439.8C43 446.7 86 460.3 128.8 460.3C171.7 460.3 214.3 446.7 257.2 435.3C300 424 343 415 385.8 415.5C428.7 416 471.3 426 514.2 431.5C557 437 600 438 642.8 442.8C685.7 447.7 728.3 456.3 771.2 448.8C814 441.3 857 417.7 878.5 405.8L900 394L900 601L878.5 601C857 601 814 601 771.2 601C728.3 601 685.7 601 642.8 601C600 601 557 601 514.2 601C471.3 601 428.7 601 385.8 601C343 601 300 601 257.2 601C214.3 601 171.7 601 128.8 601C86 601 43 601 21.5 601L0 601Z" fill="#7322b1"></path><path d="M0 462L21.5 459.5C43 457 86 452 128.8 459.7C171.7 467.3 214.3 487.7 257.2 498C300 508.3 343 508.7 385.8 505.7C428.7 502.7 471.3 496.3 514.2 487.2C557 478 600 466 642.8 459.7C685.7 453.3 728.3 452.7 771.2 454.3C814 456 857 460 878.5 462L900 464L900 601L878.5 601C857 601 814 601 771.2 601C728.3 601 685.7 601 642.8 601C600 601 557 601 514.2 601C471.3 601 428.7 601 385.8 601C343 601 300 601 257.2 601C214.3 601 171.7 601 128.8 601C86 601 43 601 21.5 601L0 601Z" fill="#a31bb9"></path><path d="M0 534L21.5 528.5C43 523 86 512 128.8 510.5C171.7 509 214.3 517 257.2 520.5C300 524 343 523 385.8 518.7C428.7 514.3 471.3 506.7 514.2 508.7C557 510.7 600 522.3 642.8 522.3C685.7 522.3 728.3 510.7 771.2 511.5C814 512.3 857 525.7 878.5 532.3L900 539L900 601L878.5 601C857 601 814 601 771.2 601C728.3 601 685.7 601 642.8 601C600 601 557 601 514.2 601C471.3 601 428.7 601 385.8 601C343 601 300 601 257.2 601C214.3 601 171.7 601 128.8 601C86 601 43 601 21.5 601L0 601Z" fill="#d00fbd"></path><path d="M0 543L21.5 544.3C43 545.7 86 548.3 128.8 551.8C171.7 555.3 214.3 559.7 257.2 556.7C300 553.7 343 543.3 385.8 542C428.7 540.7 471.3 548.3 514.2 552C557 555.7 600 555.3 642.8 557.2C685.7 559 728.3 563 771.2 566C814 569 857 571 878.5 572L900 573L900 601L878.5 601C857 601 814 601 771.2 601C728.3 601 685.7 601 642.8 601C600 601 557 601 514.2 601C471.3 601 428.7 601 385.8 601C343 601 300 601 257.2 601C214.3 601 171.7 601 128.8 601C86 601 43 601 21.5 601L0 601Z" fill="#fa00be"></path></svg>